<?xml version="1.0" encoding="UTF-8"?><svg id="Layer_4" xmlns="http://www.w3.org/2000/svg" viewBox="0 0 256 256"><defs><style>.cls-1{stroke:#004000;stroke-width:1.71px;}.cls-1,.cls-2,.cls-3{fill:none;}.cls-2{stroke-width:10.66px;}.cls-2,.cls-3{stroke:#fff;}.cls-4{fill:red;}.cls-4,.cls-5{fill-rule:evenodd;}.cls-5{fill:#361c04;}.cls-6{fill:#fff;}.cls-3{stroke-linecap:round;stroke-linejoin:round;stroke-width:25px;}.cls-7{fill:#00341c;}</style></defs><path class="cls-6" d="M133.33,216.19c-19.04-10.82-64.82-39.11-81.39-69.35-20.28-34.55-20.3-69.35-.05-86.6,8.47-7.22,20.43-11.36,32.8-11.36,20.1,0,37.76,10.45,48.45,28.68l.18.31.18-.31c10.7-18.23,28.36-28.68,48.46-28.68,12.37,0,24.33,4.14,32.81,11.36,20.25,17.25,20.23,52.05-.04,86.6-16.57,30.26-62.36,58.54-81.4,69.36Z"/><path d="M181.97,49.09c12.32,0,24.23,4.12,32.67,11.31,20.17,17.18,20.13,51.87-.1,86.34-16.52,30.15-62.13,58.36-81.21,69.21-19.08-10.86-64.69-39.07-81.21-69.22-20.22-34.45-20.26-69.15-.09-86.33,8.44-7.19,20.34-11.31,32.67-11.31,20.02,0,37.61,10.41,48.27,28.57l.37.63.37-.63c10.66-18.16,28.26-28.57,48.27-28.57M181.97,48.66c-17.74,0-36.69,8.43-48.64,28.78-11.95-20.35-30.89-28.78-48.64-28.78-12.55,0-24.5,4.22-32.94,11.41-20.39,17.37-20.39,52.12,0,86.87,14.28,26.06,50.99,52.12,81.58,69.5,30.6-17.37,67.31-43.43,81.59-69.5,20.39-34.74,20.39-69.5,0-86.87-8.45-7.2-20.4-11.41-32.95-11.41h0Z"/><path class="cls-6" d="M125.48,230.06c-21.19-10.81-41.73-23.76-57.75-36.44-14.54-11.51-26.53-24.38-33.76-36.24-13.48-20.7-20.8-43.89-20.62-65.31.17-19.96,7.84-37.61,22.19-51.05,12.86-12.05,31.86-18.96,52.11-18.96,4.87,0,9.76.41,14.56,1.21,17.6,2.95,33.75,12.06,46.68,26.36l.12.13.15-.09c5.9-3.69,12.4-6.37,19.3-7.96,4.64-1.07,9.43-1.61,14.23-1.61,14.19,0,28.09,4.76,38.12,13.07,11.19,9.17,17.79,22.88,19.09,39.67,1.41,18.19-3.95,39.32-15.11,59.52-5.67,11.39-15.62,23.84-29.58,37-18,16.97-39.34,31.5-54.08,40.71h-15.65ZM84.7,48.45c-12.47,0-24.53,4.18-33.08,11.46-20.41,17.39-20.43,52.41-.04,87.14,5.54,10.12,24.61,37.17,81.66,69.57l.11.06.11-.06c57.06-32.4,76.12-59.45,81.67-69.58,20.38-34.73,20.37-69.74-.05-87.13-8.55-7.28-20.61-11.46-33.08-11.46-20.13,0-37.84,10.41-48.64,28.58-10.79-18.17-28.5-28.58-48.64-28.58Z"/><path d="M87.65,22.27c4.85,0,9.74.41,14.53,1.2,17.56,2.94,33.66,12.03,46.55,26.29l.24.26.3-.19c5.88-3.68,12.35-6.35,19.23-7.93,4.62-1.07,9.39-1.61,14.18-1.61,14.14,0,27.99,4.75,37.99,13.02,11.14,9.13,17.71,22.79,19.01,39.52,1.41,18.15-3.95,39.24-15.09,59.42-5.65,11.36-15.58,23.79-29.53,36.93-17.96,16.93-39.26,31.44-54,40.65h-15.49c-21.24-10.82-41.73-23.74-57.72-36.39-14.52-11.5-26.49-24.35-33.72-36.19-13.45-20.66-20.76-43.81-20.58-65.18.17-19.9,7.82-37.5,22.12-50.9,12.82-12.02,31.76-18.91,51.96-18.91M133.33,76.61c-10.85-18.05-28.54-28.38-48.64-28.38-12.52,0-24.63,4.2-33.22,11.51-20.49,17.46-20.53,52.58-.1,87.4,5.56,10.14,24.64,37.23,81.74,69.66l.21.12.21-.12c57.1-32.42,76.19-59.52,81.74-69.65,20.44-34.82,20.4-69.95-.09-87.41-8.59-7.32-20.7-11.51-33.22-11.51-20.1,0-37.79,10.33-48.64,28.38M87.65,21.84c-20.18,0-39.32,6.9-52.26,19.02-13.73,12.86-22.08,30.33-22.26,51.2-.16,19.8,6.01,42.93,20.65,65.42,7.36,12.05,19.29,24.79,33.81,36.29,17.76,14.06,38.87,26.81,57.89,36.49h15.71c17.93-11.2,37.84-25.38,54.17-40.77,12.73-12,23.41-24.58,29.62-37.05,11.53-20.87,16.52-41.85,15.14-59.64-1.28-16.45-7.66-30.39-19.17-39.82-9.91-8.2-23.75-13.12-38.26-13.12-4.73,0-9.52.52-14.28,1.62-6.63,1.53-13.21,4.14-19.36,7.99-13.61-15.05-29.98-23.61-46.8-26.42-4.88-.81-9.77-1.21-14.6-1.21h0ZM133.33,77.44c11.95-20.35,30.9-28.78,48.64-28.78,12.55,0,24.5,4.21,32.95,11.41,20.39,17.37,20.39,52.12,0,86.87-14.28,26.06-50.99,52.12-81.59,69.5-30.59-17.37-67.3-43.43-81.58-69.5-20.39-34.74-20.39-69.5,0-86.87,8.45-7.2,20.4-11.41,32.94-11.41,17.75,0,36.69,8.43,48.64,28.78h0Z"/><path class="cls-2" d="M133.33,216.19c-19.04-10.82-64.82-39.11-81.39-69.35-20.28-34.55-20.3-69.35-.05-86.6,8.47-7.22,20.43-11.36,32.8-11.36,20.1,0,37.76,10.45,48.45,28.68l.18.31.18-.31c10.7-18.23,28.36-28.68,48.46-28.68,12.37,0,24.33,4.14,32.81,11.36,20.25,17.25,20.23,52.05-.04,86.6-16.57,30.26-62.36,58.54-81.4,69.36Z"/><path class="cls-2" d="M181.97,49.09c12.32,0,24.23,4.12,32.67,11.31,20.17,17.18,20.13,51.87-.1,86.34-16.52,30.15-62.13,58.36-81.21,69.21-19.08-10.86-64.69-39.07-81.21-69.22-20.22-34.45-20.26-69.15-.09-86.33,8.44-7.19,20.34-11.31,32.67-11.31,20.02,0,37.61,10.41,48.27,28.57l.37.63.37-.63c10.66-18.16,28.26-28.57,48.27-28.57M181.97,48.66c-17.74,0-36.69,8.43-48.64,28.78-11.95-20.35-30.89-28.78-48.64-28.78-12.55,0-24.5,4.22-32.94,11.41-20.39,17.37-20.39,52.12,0,86.87,14.28,26.06,50.99,52.12,81.58,69.5,30.6-17.37,67.31-43.43,81.59-69.5,20.39-34.74,20.39-69.5,0-86.87-8.45-7.2-20.4-11.41-32.95-11.41h0Z"/><path class="cls-2" d="M125.48,230.06c-21.19-10.81-41.73-23.76-57.75-36.44-14.54-11.51-26.53-24.38-33.76-36.24-13.48-20.7-20.8-43.89-20.62-65.31.17-19.96,7.84-37.61,22.19-51.05,12.86-12.05,31.86-18.96,52.11-18.96,4.87,0,9.76.41,14.56,1.21,17.6,2.95,33.75,12.06,46.68,26.36l.12.13.15-.09c5.9-3.69,12.4-6.37,19.3-7.96,4.64-1.07,9.43-1.61,14.23-1.61,14.19,0,28.09,4.76,38.12,13.07,11.19,9.17,17.79,22.88,19.09,39.67,1.41,18.19-3.95,39.32-15.11,59.52-5.67,11.39-15.62,23.84-29.58,37-18,16.97-39.34,31.5-54.08,40.71h-15.65ZM84.7,48.45c-12.47,0-24.53,4.18-33.08,11.46-20.41,17.39-20.43,52.41-.04,87.14,5.54,10.12,24.61,37.17,81.66,69.57l.11.06.11-.06c57.06-32.4,76.12-59.45,81.67-69.58,20.38-34.73,20.37-69.74-.05-87.13-8.55-7.28-20.61-11.46-33.08-11.46-20.13,0-37.84,10.41-48.64,28.58-10.79-18.17-28.5-28.58-48.64-28.58Z"/><path class="cls-2" d="M87.65,22.27c4.85,0,9.74.41,14.53,1.2,17.56,2.94,33.66,12.03,46.55,26.29l.24.26.3-.19c5.88-3.68,12.35-6.35,19.23-7.93,4.62-1.07,9.39-1.61,14.18-1.61,14.14,0,27.99,4.75,37.99,13.02,11.14,9.13,17.71,22.79,19.01,39.52,1.41,18.15-3.95,39.24-15.09,59.42-5.65,11.36-15.58,23.79-29.53,36.93-17.96,16.93-39.26,31.44-54,40.65h-15.49c-21.24-10.82-41.73-23.74-57.72-36.39-14.52-11.5-26.49-24.35-33.72-36.19-13.45-20.66-20.76-43.81-20.58-65.18.17-19.9,7.82-37.5,22.12-50.9,12.82-12.02,31.76-18.91,51.96-18.91M133.33,76.61c-10.85-18.05-28.54-28.38-48.64-28.38-12.52,0-24.63,4.2-33.22,11.51-20.49,17.46-20.53,52.58-.1,87.4,5.56,10.14,24.64,37.23,81.74,69.66l.21.12.21-.12c57.1-32.42,76.19-59.52,81.74-69.65,20.44-34.82,20.4-69.95-.09-87.41-8.59-7.32-20.7-11.51-33.22-11.51-20.1,0-37.79,10.33-48.64,28.38M87.65,21.84c-20.18,0-39.32,6.9-52.26,19.02-13.73,12.86-22.08,30.33-22.26,51.2-.16,19.8,6.01,42.93,20.65,65.42,7.36,12.05,19.29,24.79,33.81,36.29,17.76,14.06,38.87,26.81,57.89,36.49h15.71c17.93-11.2,37.84-25.38,54.17-40.77,12.73-12,23.41-24.58,29.62-37.05,11.53-20.87,16.52-41.85,15.14-59.64-1.28-16.45-7.66-30.39-19.17-39.82-9.91-8.2-23.75-13.12-38.26-13.12-4.73,0-9.52.52-14.28,1.62-6.63,1.53-13.21,4.14-19.36,7.99-13.61-15.05-29.98-23.61-46.8-26.42-4.88-.81-9.77-1.21-14.6-1.21h0ZM133.33,77.44c11.95-20.35,30.9-28.78,48.64-28.78,12.55,0,24.5,4.21,32.95,11.41,20.39,17.37,20.39,52.12,0,86.87-14.28,26.06-50.99,52.12-81.59,69.5-30.59-17.37-67.3-43.43-81.58-69.5-20.39-34.74-20.39-69.5,0-86.87,8.45-7.2,20.4-11.41,32.94-11.41,17.75,0,36.69,8.43,48.64,28.78h0Z"/><path class="cls-4" d="M133.33,77.44c20.4-34.74,61.19-34.74,81.59-17.37,20.39,17.37,20.39,52.12,0,86.87-14.28,26.06-50.99,52.12-81.59,69.5-30.59-17.37-67.3-43.43-81.58-69.5-20.39-34.74-20.39-69.5,0-86.87,20.39-17.37,61.19-17.37,81.58,17.37Z"/><path class="cls-5" d="M133.33,77.44c20.4-34.74,61.19-34.74,81.59-17.37,20.39,17.37,20.39,52.12,0,86.87-14.28,26.06-50.99,52.12-81.59,69.5-30.59-17.37-67.3-43.43-81.58-69.5-20.39-34.74-20.39-69.5,0-86.87,20.39-17.37,61.19-17.37,81.58,17.37ZM149.04,49.48c-13.61-15.05-29.98-23.61-46.8-26.42-25.25-4.22-50.82,2.79-66.85,17.81-13.73,12.86-22.08,30.33-22.26,51.2-.16,19.8,6.01,42.93,20.65,65.42,7.36,12.05,19.29,24.79,33.81,36.29,17.76,14.06,38.87,26.81,57.89,36.49h15.71c17.93-11.2,37.84-25.38,54.17-40.77,12.73-12,23.41-24.58,29.62-37.05,11.53-20.87,16.52-41.85,15.14-59.64-1.28-16.45-7.66-30.39-19.17-39.82-13.14-10.87-33.17-15.97-52.54-11.5-6.63,1.53-13.21,4.14-19.36,7.99Z"/><path class="cls-1" d="M11.25,188.26c0-5.91,1.14-11.49,3.41-16.73,2.28-5.24,5.36-9.83,9.26-13.74,3.89-3.91,8.49-7.02,13.78-9.31,5.29-2.29,10.94-3.44,16.97-3.44,4.26,0,8.3.63,12.12,1.88,3.82,1.26,7.27,2.88,10.36,4.88,3.09,1.99,5.69,4.29,7.83,6.87,2.13,2.59,3.71,5.14,4.74,7.65,0-3.25.11-6.5.35-9.75.23-3.25.43-6.5.58-9.75h7.93v74.25h16.4v8.87h-25.27v-8.87c0-1.77.03-3.51.11-5.21.07-1.7.11-3.36.11-4.99-1.03,2.51-2.61,5.03-4.74,7.54-2.13,2.51-4.7,4.73-7.71,6.65-3.01,1.92-6.47,3.47-10.36,4.65s-8.05,1.77-12.45,1.77c-6.03,0-11.68-1.15-16.97-3.44-5.29-2.29-9.88-5.35-13.78-9.2-3.89-3.84-6.98-8.38-9.26-13.63-2.28-5.24-3.41-10.9-3.41-16.96ZM20.12,188.37c0,4.74.89,9.2,2.66,13.34s4.17,7.78,7.2,10.9c3.03,3.11,6.65,5.56,10.86,7.34,4.21,1.78,8.76,2.67,13.63,2.67s9.38-.89,13.52-2.67c4.14-1.78,7.76-4.23,10.86-7.34,3.1-3.11,5.54-6.75,7.31-10.9s2.66-8.6,2.66-13.34-.89-9.23-2.66-13.45-4.21-7.89-7.31-11.01c-3.1-3.11-6.73-5.56-10.86-7.34-4.14-1.78-8.64-2.67-13.52-2.67s-9.42.89-13.63,2.67-7.83,4.23-10.86,7.34c-3.03,3.11-5.43,6.78-7.2,11.01s-2.66,8.71-2.66,13.45Z"/><path class="cls-1" d="M11.25,188.26c0-5.91,1.14-11.49,3.41-16.73,2.28-5.24,5.36-9.83,9.26-13.74,3.89-3.91,8.49-7.02,13.78-9.31,5.29-2.29,10.94-3.44,16.97-3.44,4.26,0,8.3.63,12.12,1.88,3.82,1.26,7.27,2.88,10.36,4.88,3.09,1.99,5.69,4.29,7.83,6.87,2.13,2.59,3.71,5.14,4.74,7.65,0-3.25.11-6.5.35-9.75.23-3.25.43-6.5.58-9.75h7.93v74.25h16.4v8.87h-25.27v-8.87c0-1.77.03-3.51.11-5.21.07-1.7.11-3.36.11-4.99-1.03,2.51-2.61,5.03-4.74,7.54-2.13,2.51-4.7,4.73-7.71,6.65-3.01,1.92-6.47,3.47-10.36,4.65s-8.05,1.77-12.45,1.77c-6.03,0-11.68-1.15-16.97-3.44-5.29-2.29-9.88-5.35-13.78-9.2-3.89-3.84-6.98-8.38-9.26-13.63-2.28-5.24-3.41-10.9-3.41-16.96ZM20.12,188.37c0,4.74.89,9.2,2.66,13.34s4.17,7.78,7.2,10.9c3.03,3.11,6.65,5.56,10.86,7.34,4.21,1.78,8.76,2.67,13.63,2.67s9.38-.89,13.52-2.67c4.14-1.78,7.76-4.23,10.86-7.34,3.1-3.11,5.54-6.75,7.31-10.9s2.66-8.6,2.66-13.34-.89-9.23-2.66-13.45-4.21-7.89-7.31-11.01c-3.1-3.11-6.73-5.56-10.86-7.34-4.14-1.78-8.64-2.67-13.52-2.67s-9.42.89-13.63,2.67-7.83,4.23-10.86,7.34c-3.03,3.11-5.43,6.78-7.2,11.01s-2.66,8.71-2.66,13.45Z"/><path class="cls-1" d="M166.34,221.06h17.07v-65.39h-17.07v-8.87h25.93v74.25h16.4v8.87h-42.34v-8.87ZM180.52,117.33c0-2.07.74-3.8,2.22-5.21,1.48-1.4,3.18-2.11,5.1-2.11,1.77,0,3.4.7,4.88,2.11,1.48,1.41,2.22,3.14,2.22,5.21s-.74,3.81-2.22,5.21c-1.48,1.41-3.1,2.11-4.88,2.11-1.92,0-3.62-.7-5.1-2.11-1.48-1.4-2.22-3.14-2.22-5.21Z"/><path class="cls-1" d="M166.34,221.06h17.07v-65.39h-17.07v-8.87h25.93v74.25h16.4v8.87h-42.34v-8.87ZM180.52,117.33c0-2.07.74-3.8,2.22-5.21,1.48-1.4,3.18-2.11,5.1-2.11,1.77,0,3.4.7,4.88,2.11,1.48,1.41,2.22,3.14,2.22,5.21s-.74,3.81-2.22,5.21c-1.48,1.41-3.1,2.11-4.88,2.11-1.92,0-3.62-.7-5.1-2.11-1.48-1.4-2.22-3.14-2.22-5.21Z"/><path class="cls-3" d="M11.25,188.26c0-5.91,1.14-11.49,3.41-16.73,2.28-5.24,5.36-9.83,9.26-13.74,3.89-3.91,8.49-7.02,13.78-9.31,5.29-2.29,10.94-3.44,16.97-3.44,4.26,0,8.3.63,12.12,1.88,3.82,1.26,7.27,2.88,10.36,4.88,3.09,1.99,5.69,4.29,7.83,6.87,2.13,2.59,3.71,5.14,4.74,7.65,0-3.25.11-6.5.35-9.75.23-3.25.43-6.5.58-9.75h7.93v74.25h16.4v8.87h-25.27v-8.87c0-1.77.03-3.51.11-5.21.07-1.7.11-3.36.11-4.99-1.03,2.51-2.61,5.03-4.74,7.54-2.13,2.51-4.7,4.73-7.71,6.65-3.01,1.92-6.47,3.47-10.36,4.65s-8.05,1.77-12.45,1.77c-6.03,0-11.68-1.15-16.97-3.44-5.29-2.29-9.88-5.35-13.78-9.2-3.89-3.84-6.98-8.38-9.26-13.63-2.28-5.24-3.41-10.9-3.41-16.96ZM20.12,188.37c0,4.74.89,9.2,2.66,13.34s4.17,7.78,7.2,10.9c3.03,3.11,6.65,5.56,10.86,7.34,4.21,1.78,8.76,2.67,13.63,2.67s9.38-.89,13.52-2.67c4.14-1.78,7.76-4.23,10.86-7.34,3.1-3.11,5.54-6.75,7.31-10.9s2.66-8.6,2.66-13.34-.89-9.23-2.66-13.45-4.21-7.89-7.31-11.01c-3.1-3.11-6.73-5.56-10.86-7.34-4.14-1.78-8.64-2.67-13.52-2.67s-9.42.89-13.63,2.67-7.83,4.23-10.86,7.34c-3.03,3.11-5.43,6.78-7.2,11.01s-2.66,8.71-2.66,13.45Z"/><path class="cls-7" d="M11.25,188.26c0-5.91,1.14-11.49,3.41-16.73,2.28-5.24,5.36-9.83,9.26-13.74,3.89-3.91,8.49-7.02,13.78-9.31,5.29-2.29,10.94-3.44,16.97-3.44,4.26,0,8.3.63,12.12,1.88,3.82,1.26,7.27,2.88,10.36,4.88,3.09,1.99,5.69,4.29,7.83,6.87,2.13,2.59,3.71,5.14,4.74,7.65,0-3.25.11-6.5.35-9.75.23-3.25.43-6.5.58-9.75h7.93v74.25h16.4v8.87h-25.27v-8.87c0-1.77.03-3.51.11-5.21.07-1.7.11-3.36.11-4.99-1.03,2.51-2.61,5.03-4.74,7.54-2.13,2.51-4.7,4.73-7.71,6.65-3.01,1.92-6.47,3.47-10.36,4.65s-8.05,1.77-12.45,1.77c-6.03,0-11.68-1.15-16.97-3.44-5.29-2.29-9.88-5.35-13.78-9.2-3.89-3.84-6.98-8.38-9.26-13.63-2.28-5.24-3.41-10.9-3.41-16.96ZM20.12,188.37c0,4.74.89,9.2,2.66,13.34s4.17,7.78,7.2,10.9c3.03,3.11,6.65,5.56,10.86,7.34,4.21,1.78,8.76,2.67,13.63,2.67s9.38-.89,13.52-2.67c4.14-1.78,7.76-4.23,10.86-7.34,3.1-3.11,5.54-6.75,7.31-10.9s2.66-8.6,2.66-13.34-.89-9.23-2.66-13.45-4.21-7.89-7.31-11.01c-3.1-3.11-6.73-5.56-10.86-7.34-4.14-1.78-8.64-2.67-13.52-2.67s-9.42.89-13.63,2.67-7.83,4.23-10.86,7.34c-3.03,3.11-5.43,6.78-7.2,11.01s-2.66,8.71-2.66,13.45Z"/><path class="cls-3" d="M166.34,221.06h17.07v-65.39h-17.07v-8.87h25.93v74.25h16.4v8.87h-42.34v-8.87ZM180.52,117.33c0-2.07.74-3.8,2.22-5.21,1.48-1.4,3.18-2.11,5.1-2.11,1.77,0,3.4.7,4.88,2.11,1.48,1.41,2.22,3.14,2.22,5.21s-.74,3.81-2.22,5.21c-1.48,1.41-3.1,2.11-4.88,2.11-1.92,0-3.62-.7-5.1-2.11-1.48-1.4-2.22-3.14-2.22-5.21Z"/><path class="cls-7" d="M166.34,221.06h17.07v-65.39h-17.07v-8.87h25.93v74.25h16.4v8.87h-42.34v-8.87ZM180.52,117.33c0-2.07.74-3.8,2.22-5.21,1.48-1.4,3.18-2.11,5.1-2.11,1.77,0,3.4.7,4.88,2.11,1.48,1.41,2.22,3.14,2.22,5.21s-.74,3.81-2.22,5.21c-1.48,1.41-3.1,2.11-4.88,2.11-1.92,0-3.62-.7-5.1-2.11-1.48-1.4-2.22-3.14-2.22-5.21Z"/></svg>